<mxfile host="app.diagrams.net" modified="2024-03-30T13:43:17.109Z" agent="Mozilla/5.0 (Windows NT 10.0; Win64; x64) AppleWebKit/537.36 (KHTML, like Gecko) Chrome/116.0.0.0 Safari/537.36" version="24.2.1" etag="4-aYrzZzRFaOg0TwGqTw" type="github">
  <diagram name="第 1 页" id="bb3R94TrjqtX6FG53xg_">
    <mxGraphModel>
      <root>
        <mxCell id="0" />
        <mxCell id="1" parent="0" />
      </root>
    </mxGraphModel>
  </diagram>
</mxfile>
